<svg viewBox="0 0 272 116" xmlns="http://www.w3.org/2000/svg"><rect x="16" y="16" width="40" height="40" fill="white" stroke="#1e3a8a" stroke-width="2"/><circle cx="36" cy="36" r="13" fill="#2563eb"/><rect x="64" y="16" width="40" height="40" fill="white" stroke="#1e3a8a" stroke-width="2"/><circle cx="84" cy="36" r="13" fill="#2563eb"/><rect x="112" y="16" width="40" height="40" fill="white" stroke="#1e3a8a" stroke-width="2"/><circle cx="132" cy="36" r="13" fill="#2563eb"/><rect x="160" y="16" width="40" height="40" fill="white" stroke="#1e3a8a" stroke-width="2"/><circle cx="180" cy="36" r="13" fill="#2563eb"/><rect x="208" y="16" width="40" height="40" fill="white" stroke="#1e3a8a" stroke-width="2"/><circle cx="228" cy="36" r="13" fill="#2563eb"/><rect x="16" y="64" width="40" height="40" fill="white" stroke="#1e3a8a" stroke-width="2"/><circle cx="36" cy="84" r="13" fill="#2563eb"/><rect x="64" y="64" width="40" height="40" fill="white" stroke="#1e3a8a" stroke-width="2"/><circle cx="84" cy="84" r="13" fill="#2563eb"/><rect x="112" y="64" width="40" height="40" fill="white" stroke="#1e3a8a" stroke-width="2"/><circle cx="132" cy="84" r="13" fill="#2563eb"/><rect x="160" y="64" width="40" height="40" fill="white" stroke="#1e3a8a" stroke-width="2"/><rect x="208" y="64" width="40" height="40" fill="white" stroke="#1e3a8a" stroke-width="2"/></svg>