<svg viewBox="0 0 420 140" xmlns="http://www.w3.org/2000/svg"><line x1="40" y1="90" x2="276" y2="90" stroke="#1e3a8a" stroke-width="3"/><line x1="40" y1="83" x2="40" y2="97" stroke="#1e3a8a" stroke-width="1.5"/><text x="40" y="118" text-anchor="middle" font-family="sans-serif" font-size="14">0</text><line x1="58" y1="83" x2="58" y2="97" stroke="#1e3a8a" stroke-width="1.5"/><line x1="76" y1="83" x2="76" y2="97" stroke="#1e3a8a" stroke-width="1.5"/><text x="76" y="118" text-anchor="middle" font-family="sans-serif" font-size="14">2</text><line x1="94" y1="83" x2="94" y2="97" stroke="#1e3a8a" stroke-width="1.5"/><line x1="112" y1="83" x2="112" y2="97" stroke="#1e3a8a" stroke-width="1.5"/><text x="112" y="118" text-anchor="middle" font-family="sans-serif" font-size="14">4</text><line x1="130" y1="83" x2="130" y2="97" stroke="#1e3a8a" stroke-width="1.5"/><line x1="148" y1="83" x2="148" y2="97" stroke="#1e3a8a" stroke-width="1.5"/><text x="148" y="118" text-anchor="middle" font-family="sans-serif" font-size="14">6</text><line x1="166" y1="83" x2="166" y2="97" stroke="#1e3a8a" stroke-width="1.5"/><line x1="184" y1="83" x2="184" y2="97" stroke="#1e3a8a" stroke-width="1.5"/><text x="184" y="118" text-anchor="middle" font-family="sans-serif" font-size="14">8</text><line x1="202" y1="83" x2="202" y2="97" stroke="#1e3a8a" stroke-width="1.5"/><line x1="220" y1="83" x2="220" y2="97" stroke="#1e3a8a" stroke-width="1.5"/><text x="220" y="118" text-anchor="middle" font-family="sans-serif" font-size="14">10</text><line x1="238" y1="83" x2="238" y2="97" stroke="#1e3a8a" stroke-width="1.5"/><line x1="256" y1="83" x2="256" y2="97" stroke="#1e3a8a" stroke-width="1.5"/><text x="256" y="118" text-anchor="middle" font-family="sans-serif" font-size="14">12</text><path d="M 130 86 Q 166 45 202 86" fill="none" stroke="#dc2626" stroke-width="3"/><text x="166" y="42" text-anchor="middle" font-family="sans-serif" font-size="15" fill="#dc2626">+4</text><path d="M 202 86 Q 229 45 256 86" fill="none" stroke="#dc2626" stroke-width="3"/><text x="229" y="42" text-anchor="middle" font-family="sans-serif" font-size="15" fill="#dc2626">+3</text></svg>