<svg viewBox="0 0 320 135" xmlns="http://www.w3.org/2000/svg"><rect x="55" y="34" width="160" height="16" fill="#facc15" stroke="#1e3a8a" stroke-width="2"/><polygon points="215,34 245,42 215,50" fill="#fca5a5" stroke="#1e3a8a" stroke-width="2"/><line x1="50" y1="80" x2="290" y2="80" stroke="#1e3a8a" stroke-width="3"/><line x1="50" y1="80" x2="50" y2="104" stroke="#1e3a8a" stroke-width="2"/><text x="50" y="123" text-anchor="middle" font-family="sans-serif" font-size="14">0</text><line x1="80" y1="80" x2="80" y2="96" stroke="#1e3a8a" stroke-width="2"/><text x="80" y="123" text-anchor="middle" font-family="sans-serif" font-size="14">1</text><line x1="110" y1="80" x2="110" y2="104" stroke="#1e3a8a" stroke-width="2"/><text x="110" y="123" text-anchor="middle" font-family="sans-serif" font-size="14">2</text><line x1="140" y1="80" x2="140" y2="96" stroke="#1e3a8a" stroke-width="2"/><text x="140" y="123" text-anchor="middle" font-family="sans-serif" font-size="14">3</text><line x1="170" y1="80" x2="170" y2="104" stroke="#1e3a8a" stroke-width="2"/><text x="170" y="123" text-anchor="middle" font-family="sans-serif" font-size="14">4</text><line x1="200" y1="80" x2="200" y2="96" stroke="#1e3a8a" stroke-width="2"/><text x="200" y="123" text-anchor="middle" font-family="sans-serif" font-size="14">5</text><line x1="230" y1="80" x2="230" y2="104" stroke="#1e3a8a" stroke-width="2"/><text x="230" y="123" text-anchor="middle" font-family="sans-serif" font-size="14">6</text><line x1="260" y1="80" x2="260" y2="96" stroke="#1e3a8a" stroke-width="2"/><text x="260" y="123" text-anchor="middle" font-family="sans-serif" font-size="14">7</text><line x1="290" y1="80" x2="290" y2="104" stroke="#1e3a8a" stroke-width="2"/><text x="290" y="123" text-anchor="middle" font-family="sans-serif" font-size="14">8</text><text x="170" y="133" text-anchor="middle" font-family="sans-serif" font-size="12">inches</text></svg>