<svg viewBox="0 0 360 170" xmlns="http://www.w3.org/2000/svg"><rect x="18" y="20" width="18" height="120" fill="#a7f3d0" stroke="#1e3a8a" stroke-width="2"/><line x1="18" y1="32" x2="36" y2="32" stroke="#1e3a8a" stroke-width="1"/><line x1="18" y1="44" x2="36" y2="44" stroke="#1e3a8a" stroke-width="1"/><line x1="18" y1="56" x2="36" y2="56" stroke="#1e3a8a" stroke-width="1"/><line x1="18" y1="68" x2="36" y2="68" stroke="#1e3a8a" stroke-width="1"/><line x1="18" y1="80" x2="36" y2="80" stroke="#1e3a8a" stroke-width="1"/><line x1="18" y1="92" x2="36" y2="92" stroke="#1e3a8a" stroke-width="1"/><line x1="18" y1="104" x2="36" y2="104" stroke="#1e3a8a" stroke-width="1"/><line x1="18" y1="116" x2="36" y2="116" stroke="#1e3a8a" stroke-width="1"/><line x1="18" y1="128" x2="36" y2="128" stroke="#1e3a8a" stroke-width="1"/><rect x="46" y="20" width="18" height="120" fill="#a7f3d0" stroke="#1e3a8a" stroke-width="2"/><line x1="46" y1="32" x2="64" y2="32" stroke="#1e3a8a" stroke-width="1"/><line x1="46" y1="44" x2="64" y2="44" stroke="#1e3a8a" stroke-width="1"/><line x1="46" y1="56" x2="64" y2="56" stroke="#1e3a8a" stroke-width="1"/><line x1="46" y1="68" x2="64" y2="68" stroke="#1e3a8a" stroke-width="1"/><line x1="46" y1="80" x2="64" y2="80" stroke="#1e3a8a" stroke-width="1"/><line x1="46" y1="92" x2="64" y2="92" stroke="#1e3a8a" stroke-width="1"/><line x1="46" y1="104" x2="64" y2="104" stroke="#1e3a8a" stroke-width="1"/><line x1="46" y1="116" x2="64" y2="116" stroke="#1e3a8a" stroke-width="1"/><line x1="46" y1="128" x2="64" y2="128" stroke="#1e3a8a" stroke-width="1"/><rect x="74" y="20" width="18" height="120" fill="#a7f3d0" stroke="#1e3a8a" stroke-width="2"/><line x1="74" y1="32" x2="92" y2="32" stroke="#1e3a8a" stroke-width="1"/><line x1="74" y1="44" x2="92" y2="44" stroke="#1e3a8a" stroke-width="1"/><line x1="74" y1="56" x2="92" y2="56" stroke="#1e3a8a" stroke-width="1"/><line x1="74" y1="68" x2="92" y2="68" stroke="#1e3a8a" stroke-width="1"/><line x1="74" y1="80" x2="92" y2="80" stroke="#1e3a8a" stroke-width="1"/><line x1="74" y1="92" x2="92" y2="92" stroke="#1e3a8a" stroke-width="1"/><line x1="74" y1="104" x2="92" y2="104" stroke="#1e3a8a" stroke-width="1"/><line x1="74" y1="116" x2="92" y2="116" stroke="#1e3a8a" stroke-width="1"/><line x1="74" y1="128" x2="92" y2="128" stroke="#1e3a8a" stroke-width="1"/><rect x="102" y="20" width="18" height="120" fill="#a7f3d0" stroke="#1e3a8a" stroke-width="2"/><line x1="102" y1="32" x2="120" y2="32" stroke="#1e3a8a" stroke-width="1"/><line x1="102" y1="44" x2="120" y2="44" stroke="#1e3a8a" stroke-width="1"/><line x1="102" y1="56" x2="120" y2="56" stroke="#1e3a8a" stroke-width="1"/><line x1="102" y1="68" x2="120" y2="68" stroke="#1e3a8a" stroke-width="1"/><line x1="102" y1="80" x2="120" y2="80" stroke="#1e3a8a" stroke-width="1"/><line x1="102" y1="92" x2="120" y2="92" stroke="#1e3a8a" stroke-width="1"/><line x1="102" y1="104" x2="120" y2="104" stroke="#1e3a8a" stroke-width="1"/><line x1="102" y1="116" x2="120" y2="116" stroke="#1e3a8a" stroke-width="1"/><line x1="102" y1="128" x2="120" y2="128" stroke="#1e3a8a" stroke-width="1"/><rect x="130" y="20" width="18" height="120" fill="#a7f3d0" stroke="#1e3a8a" stroke-width="2"/><line x1="130" y1="32" x2="148" y2="32" stroke="#1e3a8a" stroke-width="1"/><line x1="130" y1="44" x2="148" y2="44" stroke="#1e3a8a" stroke-width="1"/><line x1="130" y1="56" x2="148" y2="56" stroke="#1e3a8a" stroke-width="1"/><line x1="130" y1="68" x2="148" y2="68" stroke="#1e3a8a" stroke-width="1"/><line x1="130" y1="80" x2="148" y2="80" stroke="#1e3a8a" stroke-width="1"/><line x1="130" y1="92" x2="148" y2="92" stroke="#1e3a8a" stroke-width="1"/><line x1="130" y1="104" x2="148" y2="104" stroke="#1e3a8a" stroke-width="1"/><line x1="130" y1="116" x2="148" y2="116" stroke="#1e3a8a" stroke-width="1"/><line x1="130" y1="128" x2="148" y2="128" stroke="#1e3a8a" stroke-width="1"/><rect x="175" y="26" width="22" height="22" fill="#bfdbfe" stroke="#1e3a8a" stroke-width="2"/><rect x="203" y="26" width="22" height="22" fill="#bfdbfe" stroke="#1e3a8a" stroke-width="2"/><rect x="231" y="26" width="22" height="22" fill="#bfdbfe" stroke="#1e3a8a" stroke-width="2"/><rect x="259" y="26" width="22" height="22" fill="#bfdbfe" stroke="#1e3a8a" stroke-width="2"/><rect x="287" y="26" width="22" height="22" fill="#bfdbfe" stroke="#1e3a8a" stroke-width="2"/><rect x="315" y="26" width="22" height="22" fill="#bfdbfe" stroke="#1e3a8a" stroke-width="2"/></svg>