<svg viewBox="0 0 440 150" xmlns="http://www.w3.org/2000/svg">
    <g transform="translate(20,20)"><polygon points="20,25 55,5 90,25 55,45" fill="#dbeafe" stroke="#1e3a8a" stroke-width="2"/><polygon points="20,25 55,45 55,95 20,72" fill="#bfdbfe" stroke="#1e3a8a" stroke-width="2"/><polygon points="55,45 90,25 90,72 55,95" fill="#93c5fd" stroke="#1e3a8a" stroke-width="2"/><text x="55" y="125" text-anchor="middle" font-family="sans-serif" font-size="18">A</text></g>
    <g transform="translate(135,18)"><circle cx="50" cy="50" r="40" fill="#fecaca" stroke="#1e3a8a" stroke-width="2"/><path d="M25 36 C45 50,58 58,78 62" fill="none" stroke="#b91c1c" stroke-width="2"/><text x="50" y="127" text-anchor="middle" font-family="sans-serif" font-size="18">B</text></g>
    <g transform="translate(250,18)"><ellipse cx="48" cy="24" rx="38" ry="14" fill="#fde68a" stroke="#1e3a8a" stroke-width="2"/><rect x="10" y="24" width="76" height="66" fill="#fef3c7" stroke="#1e3a8a" stroke-width="2"/><ellipse cx="48" cy="90" rx="38" ry="14" fill="#fde68a" stroke="#1e3a8a" stroke-width="2"/><text x="48" y="127" text-anchor="middle" font-family="sans-serif" font-size="18">C</text></g>
    <g transform="translate(350,18)"><path d="M50 8 L88 88 L12 88 Z" fill="#bbf7d0" stroke="#1e3a8a" stroke-width="2"/><ellipse cx="50" cy="88" rx="38" ry="13" fill="#86efac" stroke="#1e3a8a" stroke-width="2"/><text x="50" y="127" text-anchor="middle" font-family="sans-serif" font-size="18">D</text></g>
  </svg>