<svg viewBox="0 0 380 145" xmlns="http://www.w3.org/2000/svg">
    <text x="55" y="25" text-anchor="middle" font-family="sans-serif" font-size="18">A</text><circle cx="28" cy="50" r="9" fill="#60a5fa"/><circle cx="55" cy="50" r="9" fill="#60a5fa"/><circle cx="82" cy="50" r="9" fill="#60a5fa"/><circle cx="28" cy="77" r="9" fill="#60a5fa"/><circle cx="55" cy="77" r="9" fill="#60a5fa"/><circle cx="82" cy="77" r="9" fill="#60a5fa"/>
    <text x="155" y="25" text-anchor="middle" font-family="sans-serif" font-size="18">B</text><rect x="126" y="42" width="16" height="16" fill="#facc15" stroke="#1e3a8a"/><rect x="148" y="42" width="16" height="16" fill="#facc15" stroke="#1e3a8a"/><rect x="170" y="42" width="16" height="16" fill="#facc15" stroke="#1e3a8a"/><rect x="192" y="42" width="16" height="16" fill="#facc15" stroke="#1e3a8a"/><rect x="126" y="70" width="16" height="16" fill="#facc15" stroke="#1e3a8a"/><rect x="148" y="70" width="16" height="16" fill="#facc15" stroke="#1e3a8a"/><rect x="170" y="70" width="16" height="16" fill="#facc15" stroke="#1e3a8a"/><rect x="192" y="70" width="16" height="16" fill="#facc15" stroke="#1e3a8a"/>
    <text x="255" y="25" text-anchor="middle" font-family="sans-serif" font-size="18">C</text><polygon points="230,58 240,42 250,58" fill="#fb7185" stroke="#1e3a8a"/><polygon points="252,58 262,42 272,58" fill="#fb7185" stroke="#1e3a8a"/><polygon points="274,58 284,42 294,58" fill="#fb7185" stroke="#1e3a8a"/><polygon points="296,58 306,42 316,58" fill="#fb7185" stroke="#1e3a8a"/><polygon points="230,58 240,42 250,58" fill="#fb7185" stroke="#1e3a8a"/><polygon points="252,58 262,42 272,58" fill="#fb7185" stroke="#1e3a8a"/><polygon points="274,58 284,42 294,58" fill="#fb7185" stroke="#1e3a8a"/>
    <text x="340" y="25" text-anchor="middle" font-family="sans-serif" font-size="18">D</text><circle cx="315" cy="50" r="9" fill="#86efac"/><circle cx="339" cy="50" r="9" fill="#86efac"/><circle cx="363" cy="50" r="9" fill="#86efac"/><circle cx="315" cy="77" r="9" fill="#86efac"/><circle cx="339" cy="77" r="9" fill="#86efac"/>
  </svg>